<?xml version="1.0" encoding="utf-8"?>
<!-- Generator: Adobe Illustrator 27.4.1, SVG Export Plug-In . SVG Version: 6.00 Build 0)  -->
<svg version="1.1" xmlns="http://www.w3.org/2000/svg" xmlns:xlink="http://www.w3.org/1999/xlink" x="0px" y="0px"
	 viewBox="0 0 150 150" style="enable-background:new 0 0 150 150;" xml:space="preserve">
<style type="text/css">
	.st0{display:none;}
	.st1{fill:#FFFFFF;}
	.st2{fill:#8C4278;}
	.st3{fill:#7EBFD9;}
	.st4{fill:#282827;}
	.st5{fill:#393E59;}
</style>
<g id="Capa_1" class="st0">
</g>
<g id="Layer_2">
	<g>
		<g>
			<path class="st1" d="M131,141.5H19c-9.5,0-17.1-7.7-17.1-17.1V25.6C1.9,16.2,9.6,8.5,19,8.5h112c9.5,0,17.1,7.7,17.1,17.1v98.8
				C148.1,133.8,140.4,141.5,131,141.5z"/>
			<g>
				<path class="st2" d="M143.8,24.2c-0.4-0.4-0.3-0.9-0.2-1.4c0.1,0,0.2,0,0.2,0.1C143.8,23.3,143.8,23.7,143.8,24.2z"/>
				<path class="st2" d="M143.6,127.2c-0.1-0.5-0.1-1,0.2-1.4c0,0.4,0,0.9,0,1.3l-0.1,0.1L143.6,127.2z"/>
				<g>
					<path class="st2" d="M58,24.4c-5.1,0-9.1,4.1-9.1,9.2c0,5,4.1,9,9.1,9c5,0,9-4.1,9-9.1C67,28.3,63,24.4,58,24.4z M58,37.1
						c-2.1,0-3.7-1.7-3.7-3.8c0-2,1.7-3.6,3.7-3.6c2,0,3.6,1.7,3.6,3.7C61.6,35.5,60,37.1,58,37.1z"/>
					<path class="st2" d="M126.5,31.6c-1-4.5-4.5-7.3-9.4-7.3c-9.3,0-18.6,0-27.9,0c-0.9,0-1.8,0-2.7,0.2c-4.6,1.2-7.4,5.3-6.9,10.1
						c0.5,4.4,4.4,7.8,9,7.8c4.8,0,9.7,0,14.5,0c0,0,0,0,0,0c5,0,10,0.1,15.1,0C123.5,42.3,127.7,36.9,126.5,31.6z M117.2,37.1
						c-4.7,0-9.5,0-14.2,0c0,0,0,0,0,0c-4.8,0-9.7,0-14.5,0c-1.8,0-3.2-1.2-3.5-2.9c-0.3-1.8,0.5-3.4,2.2-4.2
						c0.6-0.2,1.1-0.3,1.7-0.3c9.5,0,19,0,28.5,0c2.5,0,4,1.5,4,3.7C121.3,35.6,119.7,37.1,117.2,37.1z"/>
					<path class="st2" d="M143.8,24.2c-0.3-0.4,0-1-0.2-1.4c-0.1-0.4-0.1-0.7-0.2-1.1c-1.5-5.5-6.1-8.9-12.2-8.9H18.7
						c-1.1,0-2.2,0-3.2,0.3c-5.6,1.3-9.4,6-9.4,11.9c0,21,0,41.9,0,62.9c0,0.3,0,0.5,0,0.8C6.3,90,7.5,91,8.8,91
						c1.3,0,2.5-1,2.7-2.3c0.1-0.4,0-0.9,0-1.3c0-10.7,0-21.3,0-32c0-1.1,0.3-1.3,1.3-1.3c41.4,0,82.9,0,124.3,0
						c1.1,0,1.3,0.3,1.3,1.3c0,14,0,28,0,41.9c0,9.2,0,18.5,0,27.7c0,3.2-1.8,5.7-4.7,6.6c-1,0.3-2,0.3-3.1,0.3H19.3
						c-0.4,0-0.8,0-1.2,0c-4-0.2-6.6-2.9-6.6-7c0-3.9,0-7.9,0-11.8c0-2-1-3.2-2.7-3.2c-1.7,0-2.7,1.1-2.7,3.1c0,4.1,0,8.2,0,12.2
						c0,1.4,0.2,2.7,0.7,3.9c1.8,5.2,6.3,8.1,12.5,8.1c37.1,0,74.3,0,111.4,0c0.9,0,1.9,0,2.8-0.1c5-0.5,9.5-4.9,10.1-9.9
						c0.2-0.4-0.1-1,0.2-1.4V24.2z M137.1,48.7c-20.7,0-41.5,0-62.2,0c-20.7,0-41.3,0-61.9,0c-1.1,0-1.4-0.2-1.4-1.4
						c0.1-7.4,0-14.7,0-22c0-4.5,2.7-7.2,7.2-7.2c37.5,0,75.1,0,112.6,0c4.5,0,7.1,2.7,7.1,7.2c0,7.3,0,14.7,0,22
						C138.5,48.6,138.1,48.7,137.1,48.7z"/>
					<path class="st2" d="M8.8,97.8c1.5,0,2.7,1.1,2.7,2.6c0,1.5-1.2,2.8-2.7,2.8c-1.5,0-2.7-1.3-2.7-2.7
						C6.2,98.9,7.4,97.8,8.8,97.8z"/>
				</g>
				<path class="st3" d="M32.4,24.4c-5,0-9.1,4-9.1,9c0,5.1,4,9.2,9.1,9.2c5,0,9-4,9-9C41.5,28.4,37.5,24.4,32.4,24.4z M32.4,37.1
					c-2.1,0-3.7-1.7-3.7-3.8c0-2,1.7-3.6,3.7-3.6c2.1,0,3.6,1.6,3.6,3.7C36.1,35.5,34.5,37.1,32.4,37.1z"/>
			</g>
		</g>
		<g>
			<path class="st2" d="M103.7,86.9c-0.6-0.1-0.8-0.4-0.8-1c-0.9-8.3-4.7-14.9-11.4-19.8c-4.9-3.6-10.4-5.3-16.4-5.3v0
				c0,0-0.1,0-0.1,0c0,0-0.1,0-0.1,0v0c-6,0-11.5,1.7-16.4,5.3C51.9,71,48.1,77.6,47.1,85.9c-0.1,0.6-0.2,0.8-0.8,1
				c-7.7,1.7-12.8,8.8-11.9,16.6c0.8,7.3,6.8,13.1,14.1,13.5c4.4,0.2,8.9,0.1,13.4,0.1c0.4,0,0.5-0.1,0.5-0.5c0-1.3,0-2.6,0-3.9
				c0-0.6-0.2-0.7-0.8-0.7c-4.1,0-8.2,0.1-12.3,0c-4-0.1-7-2.1-8.8-5.7c-1.7-3.6-1.4-7.1,0.9-10.4c1.9-2.7,4.6-4.1,8-4.2
				c1.8-0.1,2.6-0.9,2.8-2.7c0-0.3,0.1-0.6,0.1-0.9c0.2-5.6,2.2-10.5,6-14.5c4.8-5.1,10.4-7.6,16.7-7.5v0c0,0,0.1,0,0.1,0
				c0,0,0.1,0,0.1,0v0c6.3-0.1,11.9,2.4,16.7,7.5c3.8,4,5.8,8.9,6,14.5c0,0.3,0,0.6,0.1,0.9c0.2,1.8,1,2.6,2.8,2.7
				c3.3,0.1,6,1.5,8,4.2c2.3,3.2,2.6,6.8,0.9,10.4c-1.7,3.6-4.8,5.6-8.8,5.7c-4.1,0.1-8.2,0.1-12.3,0c-0.6,0-0.8,0.1-0.8,0.7
				c0.1,1.3,0,2.6,0,3.9c0,0.4,0.1,0.5,0.5,0.5c4.5,0,8.9,0.1,13.4-0.1c7.3-0.3,13.3-6.2,14.1-13.5
				C116.5,95.6,111.4,88.6,103.7,86.9z"/>
			<path class="st3" d="M72.3,100.4c-1.7,1.7-3.4,3.5-5.1,5.2c-0.4,0.4-0.6,0.5-1.1,0c-0.8-0.9-1.7-1.8-2.6-2.6
				c-0.3-0.3-0.4-0.5,0-0.8c3.2-3.2,6.4-6.4,9.6-9.5c1.3-1.3,2.7-1.3,4,0c3.2,3.2,6.3,6.3,9.5,9.5c0.4,0.4,0.4,0.6,0,0.9
				c-0.9,0.9-1.8,1.8-2.7,2.7c-0.4,0.4-0.6,0.3-0.9,0c-1.7-1.8-3.5-3.5-5.3-5.3c-0.2,0.3-0.1,0.6-0.1,0.9c0,7.5,0,15,0,22.6
				c0,0.7-0.2,0.9-0.9,0.8c-1.1-0.1-2.3-0.1-3.4,0c-0.6,0-0.8-0.1-0.8-0.8c0-7.5,0-15,0-22.5c0-0.3,0-0.6,0-0.9
				C72.4,100.4,72.3,100.4,72.3,100.4z"/>
		</g>
	</g>
</g>
</svg>
