<?xml version="1.0" encoding="utf-8"?>
<!-- Generator: Adobe Illustrator 27.4.1, SVG Export Plug-In . SVG Version: 6.00 Build 0)  -->
<svg version="1.1" xmlns="http://www.w3.org/2000/svg" xmlns:xlink="http://www.w3.org/1999/xlink" x="0px" y="0px"
	 viewBox="0 0 150 150" style="enable-background:new 0 0 150 150;" xml:space="preserve">
<style type="text/css">
	.st0{display:none;}
	.st1{fill:#FFFFFF;}
	.st2{fill:#8C4278;}
	.st3{fill:#7EBFD9;}
	.st4{fill:#282827;}
	.st5{fill:#393E59;}
</style>
<g id="Capa_1" class="st0">
</g>
<g id="Layer_2">
	<g>
		<g>
			<path class="st1" d="M131,141.5H19c-9.5,0-17.1-7.7-17.1-17.1V25.6C1.9,16.2,9.6,8.5,19,8.5h112c9.5,0,17.1,7.7,17.1,17.1v98.8
				C148.1,133.8,140.4,141.5,131,141.5z"/>
			<g>
				<path class="st5" d="M143.8,24.2c-0.4-0.4-0.3-0.9-0.2-1.4c0.1,0,0.2,0,0.2,0.1C143.8,23.3,143.8,23.7,143.8,24.2z"/>
				<path class="st5" d="M143.6,127.2c-0.1-0.5-0.1-1,0.2-1.4c0,0.4,0,0.9,0,1.3l-0.1,0.1L143.6,127.2z"/>
				<g>
					<path class="st2" d="M58,24.4c-5.1,0-9.1,4.1-9.1,9.2c0,5,4.1,9,9.1,9c5,0,9-4.1,9-9.1C67,28.3,63,24.4,58,24.4z M58,37.1
						c-2.1,0-3.7-1.7-3.7-3.8c0-2,1.7-3.6,3.7-3.6c2,0,3.6,1.7,3.6,3.7C61.6,35.5,60,37.1,58,37.1z"/>
					<path class="st2" d="M126.5,31.6c-1-4.5-4.5-7.3-9.4-7.3c-9.3,0-18.6,0-27.9,0c-0.9,0-1.8,0-2.7,0.2c-4.6,1.2-7.4,5.3-6.9,10.1
						c0.5,4.4,4.4,7.8,9,7.8c4.8,0,9.7,0,14.5,0c0,0,0,0,0,0c5,0,10,0.1,15.1,0C123.5,42.3,127.7,36.9,126.5,31.6z M117.2,37.1
						c-4.7,0-9.5,0-14.2,0c0,0,0,0,0,0c-4.8,0-9.7,0-14.5,0c-1.8,0-3.2-1.2-3.5-2.9c-0.3-1.8,0.5-3.4,2.2-4.2
						c0.6-0.2,1.1-0.3,1.7-0.3c9.5,0,19,0,28.5,0c2.5,0,4,1.5,4,3.7C121.3,35.6,119.7,37.1,117.2,37.1z"/>
					<path class="st2" d="M143.8,24.2c-0.3-0.4,0-1-0.2-1.4c-0.1-0.4-0.1-0.7-0.2-1.1c-1.5-5.5-6.1-8.9-12.2-8.9H18.7
						c-1.1,0-2.2,0-3.2,0.3c-5.6,1.3-9.4,6-9.4,11.9c0,21,0,41.9,0,62.9c0,0.3,0,0.5,0,0.8C6.3,90,7.5,91,8.8,91
						c1.3,0,2.5-1,2.7-2.3c0.1-0.4,0-0.9,0-1.3c0-10.7,0-21.3,0-32c0-1.1,0.3-1.3,1.3-1.3c41.4,0,82.9,0,124.3,0
						c1.1,0,1.3,0.3,1.3,1.3c0,14,0,28,0,41.9c0,9.2,0,18.5,0,27.7c0,3.2-1.8,5.7-4.7,6.6c-1,0.3-2,0.3-3.1,0.3H19.3
						c-0.4,0-0.8,0-1.2,0c-4-0.2-6.6-2.9-6.6-7c0-3.9,0-7.9,0-11.8c0-2-1-3.2-2.7-3.2c-1.7,0-2.7,1.1-2.7,3.1c0,4.1,0,8.2,0,12.2
						c0,1.4,0.2,2.7,0.7,3.9c1.8,5.2,6.3,8.1,12.5,8.1c37.1,0,74.3,0,111.4,0c0.9,0,1.9,0,2.8-0.1c5-0.5,9.5-4.9,10.1-9.9
						c0.2-0.4-0.1-1,0.2-1.4V24.2z M137.1,48.7c-20.7,0-41.5,0-62.2,0c-20.7,0-41.3,0-61.9,0c-1.1,0-1.4-0.2-1.4-1.4
						c0.1-7.4,0-14.7,0-22c0-4.5,2.7-7.2,7.2-7.2c37.5,0,75.1,0,112.6,0c4.5,0,7.1,2.7,7.1,7.2c0,7.3,0,14.7,0,22
						C138.5,48.6,138.1,48.7,137.1,48.7z"/>
					<path class="st2" d="M8.8,97.8c1.5,0,2.7,1.1,2.7,2.6c0,1.5-1.2,2.8-2.7,2.8c-1.5,0-2.7-1.3-2.7-2.7
						C6.2,98.9,7.4,97.8,8.8,97.8z"/>
				</g>
				<path class="st3" d="M32.4,24.4c-5,0-9.1,4-9.1,9c0,5.1,4,9.2,9.1,9.2c5,0,9-4,9-9C41.5,28.4,37.5,24.4,32.4,24.4z M32.4,37.1
					c-2.1,0-3.7-1.7-3.7-3.8c0-2,1.7-3.6,3.7-3.6c2.1,0,3.6,1.6,3.6,3.7C36.1,35.5,34.5,37.1,32.4,37.1z"/>
			</g>
		</g>
		<g>
			<g>
				<path class="st2" d="M30.8,65.5c-3.8,0-6.8,3-6.8,6.7c0,3.8,3,6.7,6.8,6.7c3.8,0,6.7-3,6.7-6.8C37.5,68.4,34.5,65.5,30.8,65.5z
					 M30.8,75c-1.6,0-2.8-1.2-2.7-2.8c0-1.5,1.2-2.7,2.7-2.7c1.5,0,2.7,1.1,2.7,2.6C33.6,73.7,32.4,75,30.8,75z"/>
				<path class="st2" d="M30.8,106.9c-3.8,0-6.8,3-6.8,6.7c0,3.8,3,6.7,6.8,6.7c3.8,0,6.7-3,6.7-6.8
					C37.5,109.8,34.6,106.9,30.8,106.9z M30.7,116.3c-1.5-0.1-2.6-1.3-2.6-2.8c0-1.6,1.3-2.7,2.9-2.7c1.5,0.1,2.6,1.3,2.6,2.8
					C33.5,115.3,32.3,116.4,30.7,116.3z"/>
				<path class="st2" d="M47.2,111.4c0,1.5,0,2.9,0,4.4c0,0.9,0.3,1.6,1.4,1.6c0.9,0,1.4-0.4,1.5-1.3c0.1-1,0.8-1.2,1.6-1.1
					c1,0.1,1,0.8,1,1.6c0,0.5-0.2,1-0.4,1.4c-0.9,1.4-3.1,2.1-5,1.5c-1.6-0.4-2.5-1.6-2.6-3.4c0-0.8,0-1.6,0-2.4h0c0-1-0.1-2,0-3.1
					c0.2-2,1.8-3.2,4.2-3c2.2,0.1,3.6,1.3,3.7,3c0,0.8-0.1,1.4-1,1.4c-0.7,0.1-1.5,0-1.6-1c-0.1-1-0.8-1.4-1.7-1.3
					C47.5,109.9,47.2,110.6,47.2,111.4z"/>
				<path class="st2" d="M53.3,76.5c-1-2.9-1.9-5.9-2.7-8.9c-0.3-1-0.9-1.4-1.9-1.4c-1-0.1-1.6,0.4-1.9,1.4
					c-0.9,2.9-1.7,5.9-2.7,8.8c-0.3,1-0.1,1.5,0.8,1.8c1,0.3,1.5-0.1,1.6-1.1c0.1-1.7,1.5-1.2,2.5-1.3c1.1-0.2,1.6,0.3,1.8,1.4
					c0.1,0.9,0.6,1.4,1.5,1.1C53.2,78,53.6,77.5,53.3,76.5z M47.5,73.6c0.3-1.3,0.7-2.5,1-3.8c0.1,0,0.2,0,0.2,0
					c0.2,0.6,0.4,1.3,0.6,1.9C50,74,50,74,47.5,73.6z"/>
				<path class="st2" d="M123.6,84.1c-16.9,0-33.8,0-50.8,0c-0.5,0-1.1,0-1.6-0.1c-1.2-0.2-1.9-1-1.8-1.9c0-1,0.8-1.7,2.1-1.9
					c0.5-0.1,1.1,0,1.6,0c8.4,0,16.8,0,25.1,0c8.3,0,16.6,0,25,0c0.6,0,1.2,0,1.8,0.1c1.3,0.1,2,0.8,2.1,1.8c0.1,1-0.5,1.7-1.7,2
					C124.8,84.1,124.2,84.1,123.6,84.1z"/>
				<path class="st2" d="M69.4,69.1c0.1-1,0.7-1.7,2-1.8c0.5-0.1,1.1-0.1,1.6-0.1h50.4c0.5,0,1,0,1.5,0c1.3,0.1,2.1,0.8,2.2,1.9
					c0.1,1.1-0.7,1.9-2.1,2c-0.6,0.1-1.2,0.1-1.8,0.1c-8.4,0-16.8,0-25.1,0c-8.3,0-16.6,0-25,0c-0.6,0-1.2,0-1.8-0.1
					C70,70.9,69.3,70.2,69.4,69.1z"/>
				<path class="st2" d="M123.6,96.8c-16.9,0-33.8,0-50.8,0c-0.5,0-1.1,0-1.6-0.1c-1.2-0.2-1.9-1-1.8-1.9c0-1,0.8-1.7,2.1-1.9
					c0.5-0.1,1.1,0,1.6,0c8.4,0,16.8,0,25.1,0c8.3,0,16.6,0,25,0c0.6,0,1.2,0,1.8,0.1c1.3,0.1,2,0.8,2.1,1.8c0.1,1-0.5,1.7-1.7,2
					C124.8,96.8,124.2,96.8,123.6,96.8z"/>
			</g>
			<g>
				<g>
					<path class="st3" d="M120.8,126.8c0,1.4-0.7,2.3-1.9,2.4c-1.3,0-2.1-0.8-2.1-2.3c0-1.4,0.7-2.3,2-2.3
						C120,124.5,120.7,125.3,120.8,126.8z"/>
					<path class="st3" d="M121.7,116.5c-0.6,0.2-1,0.3-1,1.1c0,1.6-0.9,2.4-2,2.4c-1.2-0.1-1.9-1-1.9-2.5c0-0.2,0-0.4,0-0.7
						c0-2.6,0.5-3.2,3-3.9c2.1-0.5,3.6-2.5,3.4-4.6c-0.2-2.2-1.9-3.9-4.1-4.1c-2.1-0.2-4,1.2-4.6,3.4c-0.2,0.8-0.4,1.6-1.3,2
						c-1.5,0.6-2.9-0.5-2.7-2.2c0.5-3.1,2.2-5.2,5-6.4c3-1.3,5.8-0.9,8.3,1.1c2.5,1.9,3.6,4.5,3.2,7.6
						C126.6,113,124.8,115.3,121.7,116.5z"/>
				</g>
				<path class="st3" d="M30.9,85.8c-3.7-0.1-6.8,3-6.8,6.7c0,3.8,3,6.8,6.7,6.8c3.7,0,6.8-3,6.8-6.8C37.5,88.9,34.6,85.9,30.9,85.8
					z M30.8,95.4c-1.5,0-2.7-1.3-2.7-2.8c0-1.5,1.3-2.8,2.8-2.8c1.5,0,2.7,1.3,2.7,2.7C33.5,94.1,32.3,95.4,30.8,95.4z"/>
				<path class="st3" d="M51.9,92.6c-0.6-0.5-0.4-0.6,0-1c1.6-2,0.5-4.6-1.9-4.9c-1.3-0.1-2.7-0.1-4-0.1c-0.8,0-1.3,0.4-1.2,1.3
					c0.1,1.6,0,3.1,0,4.7c0,1.6,0,3.2,0,4.8c0,0.8,0.4,1.3,1.2,1.3c1.4,0,2.8,0,4.3-0.1c1.2-0.1,2.2-0.7,2.4-1.9
					C52.9,95.3,53.3,93.7,51.9,92.6z M48.4,88.9c0.9-0.1,1.6,0.2,1.6,1.1c0,1-0.8,1-1.6,1.1c-1.1,0.1-1-0.5-1.1-1.3
					C47.2,89,47.6,88.7,48.4,88.9z M48.3,96.4c-2,0-0.7-1.5-1-2.2c-0.3-0.9,0.2-1.3,1-1.1c1.6,0,2,0.4,2,1.7
					C50.3,96.2,49.5,96.4,48.3,96.4z"/>
				<g>
					<path class="st3" d="M97.4,118.8l-4.2-4.5l-3.5-3.7l-1.5-1.6l6.6-4.3l0.2-0.2c0.7-0.7,1-1.8,0.6-2.7c-0.4-0.9-1.3-1.6-2.3-1.6
						H73c-1.3,0-2.4,1-2.5,2.4l-0.5,8l-0.2,3.7l-0.5,8.4c-0.1,1,0.5,2,1.4,2.4c0.9,0.4,2,0.3,2.8-0.4l5-6.7l9.2,9.8
						c0.7,0.8,1.7,1.2,2.8,1.3h0.1c1,0,2-0.4,2.8-1.1l3.7-3.5C98.8,123,98.9,120.4,97.4,118.8z M95.3,122.5l-3.7,3.5
						c-0.2,0.2-0.6,0.4-0.9,0.3c-0.3,0-0.7-0.2-0.9-0.4l-9.7-10.2c-0.4-0.4-1-0.7-1.6-0.7c0,0-0.1,0-0.1,0c-0.7,0-1.3,0.4-1.7,0.9
						l-4.5,6.1l0.4-7.7l0.2-3.7l0.4-7.6h19l-6.2,4.1c-0.6,0.4-0.9,0.9-1,1.6c-0.1,0.7,0.1,1.3,0.6,1.8l0.2,0.2l3.5,3.7l6,6.4
						C95.8,121.2,95.8,122,95.3,122.5z"/>
				</g>
			</g>
		</g>
	</g>
</g>
</svg>
