<?xml version="1.0" encoding="utf-8"?>
<!-- Generator: Adobe Illustrator 27.4.1, SVG Export Plug-In . SVG Version: 6.00 Build 0)  -->
<svg version="1.1" xmlns="http://www.w3.org/2000/svg" xmlns:xlink="http://www.w3.org/1999/xlink" x="0px" y="0px"
	 viewBox="0 0 150 150" style="enable-background:new 0 0 150 150;" xml:space="preserve">
<style type="text/css">
	.st0{display:none;}
	.st1{fill:#FFFFFF;}
	.st2{fill:#8C4278;}
	.st3{fill:#7EBFD9;}
	.st4{fill:#282827;}
	.st5{fill:#393E59;}
</style>
<g id="Capa_1" class="st0">
</g>
<g id="Layer_2">
	<g>
		<g>
			<path class="st1" d="M131,141.5H19c-9.5,0-17.1-7.7-17.1-17.1V25.6C1.9,16.2,9.6,8.5,19,8.5h112c9.5,0,17.1,7.7,17.1,17.1v98.8
				C148.1,133.8,140.4,141.5,131,141.5z"/>
			<g>
				<path class="st2" d="M143.8,24.2c-0.4-0.4-0.3-0.9-0.2-1.4c0.1,0,0.2,0,0.2,0.1C143.8,23.3,143.8,23.7,143.8,24.2z"/>
				<path class="st2" d="M143.6,127.2c-0.1-0.5-0.1-1,0.2-1.4c0,0.4,0,0.9,0,1.3l-0.1,0.1L143.6,127.2z"/>
				<g>
					<path class="st2" d="M58,24.4c-5.1,0-9.1,4.1-9.1,9.2c0,5,4.1,9,9.1,9c5,0,9-4.1,9-9.1C67,28.3,63,24.4,58,24.4z M58,37.1
						c-2.1,0-3.7-1.7-3.7-3.8c0-2,1.7-3.6,3.7-3.6c2,0,3.6,1.7,3.6,3.7C61.6,35.5,60,37.1,58,37.1z"/>
					<path class="st2" d="M126.5,31.6c-1-4.5-4.5-7.3-9.4-7.3c-9.3,0-18.6,0-27.9,0c-0.9,0-1.8,0-2.7,0.2c-4.6,1.2-7.4,5.3-6.9,10.1
						c0.5,4.4,4.4,7.8,9,7.8c4.8,0,9.7,0,14.5,0c0,0,0,0,0,0c5,0,10,0.1,15.1,0C123.5,42.3,127.7,36.9,126.5,31.6z M117.2,37.1
						c-4.7,0-9.5,0-14.2,0c0,0,0,0,0,0c-4.8,0-9.7,0-14.5,0c-1.8,0-3.2-1.2-3.5-2.9c-0.3-1.8,0.5-3.4,2.2-4.2
						c0.6-0.2,1.1-0.3,1.7-0.3c9.5,0,19,0,28.5,0c2.5,0,4,1.5,4,3.7C121.3,35.6,119.7,37.1,117.2,37.1z"/>
					<path class="st2" d="M143.8,24.2c-0.3-0.4,0-1-0.2-1.4c-0.1-0.4-0.1-0.7-0.2-1.1c-1.5-5.5-6.1-8.9-12.2-8.9H18.7
						c-1.1,0-2.2,0-3.2,0.3c-5.6,1.3-9.4,6-9.4,11.9c0,21,0,41.9,0,62.9c0,0.3,0,0.5,0,0.8C6.3,90,7.5,91,8.8,91
						c1.3,0,2.5-1,2.7-2.3c0.1-0.4,0-0.9,0-1.3c0-10.7,0-21.3,0-32c0-1.1,0.3-1.3,1.3-1.3c41.4,0,82.9,0,124.3,0
						c1.1,0,1.3,0.3,1.3,1.3c0,14,0,28,0,41.9c0,9.2,0,18.5,0,27.7c0,3.2-1.8,5.7-4.7,6.6c-1,0.3-2,0.3-3.1,0.3H19.3
						c-0.4,0-0.8,0-1.2,0c-4-0.2-6.6-2.9-6.6-7c0-3.9,0-7.9,0-11.8c0-2-1-3.2-2.7-3.2c-1.7,0-2.7,1.1-2.7,3.1c0,4.1,0,8.2,0,12.2
						c0,1.4,0.2,2.7,0.7,3.9c1.8,5.2,6.3,8.1,12.5,8.1c37.1,0,74.3,0,111.4,0c0.9,0,1.9,0,2.8-0.1c5-0.5,9.5-4.9,10.1-9.9
						c0.2-0.4-0.1-1,0.2-1.4V24.2z M137.1,48.7c-20.7,0-41.5,0-62.2,0c-20.7,0-41.3,0-61.9,0c-1.1,0-1.4-0.2-1.4-1.4
						c0.1-7.4,0-14.7,0-22c0-4.5,2.7-7.2,7.2-7.2c37.5,0,75.1,0,112.6,0c4.5,0,7.1,2.7,7.1,7.2c0,7.3,0,14.7,0,22
						C138.5,48.6,138.1,48.7,137.1,48.7z"/>
					<path class="st2" d="M8.8,97.8c1.5,0,2.7,1.1,2.7,2.6c0,1.5-1.2,2.8-2.7,2.8c-1.5,0-2.7-1.3-2.7-2.7
						C6.2,98.9,7.4,97.8,8.8,97.8z"/>
				</g>
				<path class="st3" d="M32.4,24.4c-5,0-9.1,4-9.1,9c0,5.1,4,9.2,9.1,9.2c5,0,9-4,9-9C41.5,28.4,37.5,24.4,32.4,24.4z M32.4,37.1
					c-2.1,0-3.7-1.7-3.7-3.8c0-2,1.7-3.6,3.7-3.6c2.1,0,3.6,1.6,3.6,3.7C36.1,35.5,34.5,37.1,32.4,37.1z"/>
			</g>
		</g>
		<g>
			<g>
				<g>
					<path class="st2" d="M62.9,89.6c-0.5,0-0.9-0.2-1.3-0.5l-4.7-4.7c-0.5-0.5-0.5-1.3,0-1.7c0.5-0.5,1.3-0.5,1.7,0l4.3,4.3
						l9.2-9.2c0.5-0.5,1.3-0.5,1.7,0c0.5,0.5,0.5,1.3,0,1.7L64.1,89C63.8,89.4,63.3,89.6,62.9,89.6z M62.4,87.3
						C62.4,87.3,62.4,87.3,62.4,87.3L62.4,87.3z M63.3,87.3L63.3,87.3C63.3,87.3,63.3,87.3,63.3,87.3z"/>
				</g>
				<g>
					<path class="st2" d="M90.2,79.2c-0.1-0.9-0.8-1.6-1.6-1.9l-5.4-1.9l2.5-5.2c0.4-0.8,0.3-1.8-0.2-2.5c-1.7-2.3-3.7-4.3-6-6
						c-0.7-0.5-1.7-0.6-2.5-0.2L71.8,64l-1.9-5.4c-0.3-0.8-1-1.5-1.9-1.6c-2.8-0.4-5.6-0.4-8.4,0c-0.9,0.1-1.6,0.8-1.9,1.6L55.6,64
						l-5.2-2.5c-0.8-0.4-1.8-0.3-2.5,0.2c-2.3,1.7-4.3,3.7-6,5.9c-0.5,0.7-0.6,1.7-0.2,2.5l2.5,5.2l-5.4,1.9c-0.9,0.3-1.5,1-1.6,1.9
						c-0.2,1.4-0.3,2.8-0.3,4.2c0,1.4,0.1,2.8,0.3,4.2c0.1,0.9,0.8,1.6,1.6,1.9l5.4,1.9l-2.5,5.2c-0.4,0.8-0.3,1.8,0.2,2.5
						c1.7,2.3,3.7,4.3,5.9,6c0.7,0.5,1.7,0.6,2.5,0.2l5.2-2.5l1.9,5.4c0.3,0.8,1,1.5,1.9,1.6c1.4,0.2,2.8,0.3,4.2,0.3
						c1.4,0,2.8-0.1,4.2-0.3c0.9-0.1,1.6-0.8,1.9-1.6l1.9-5.4l5.2,2.5c0.8,0.4,1.8,0.3,2.5-0.2c0.1-0.1,0.3-0.2,0.4-0.3
						c0.8-0.6,1.5-1.2,2.2-1.9c0.9-0.8,1.6-1.6,2.4-2.6c0.3-0.4,0.6-0.8,0.9-1.2c0.3-0.4,0.4-0.8,0.5-1.3c0-0.4,0-0.8-0.2-1.2
						l-2.5-5.2l5.4-1.9c0.9-0.3,1.5-1,1.6-1.9c0.2-1.4,0.3-2.8,0.3-4.2C90.5,82,90.4,80.6,90.2,79.2z M86,85.8l-5.2,1.8
						c-0.7,0.2-1.2,0.8-1.5,1.5c-0.2,0.4-0.3,0.9-0.5,1.3c-0.3,0.7-0.3,1.4,0,2.1l2.4,5c-1,1.3-2.2,2.4-3.4,3.4l-5-2.4
						c-0.7-0.3-1.4-0.3-2.1,0c-0.4,0.2-0.9,0.4-1.3,0.5c-0.7,0.2-1.2,0.8-1.5,1.5l-1.8,5.2c-1.6,0.2-3.2,0.2-4.8,0l-1.8-5.2
						c-0.2-0.7-0.8-1.2-1.5-1.5c-0.4-0.2-0.9-0.3-1.3-0.5c-0.7-0.3-1.4-0.3-2.1,0l-5,2.4c-1.3-1-2.4-2.2-3.4-3.4l2.4-4.9
						c0.3-0.7,0.3-1.4,0-2.1c-0.2-0.4-0.4-0.9-0.5-1.3c-0.3-0.7-0.8-1.2-1.5-1.5l-5.2-1.8c-0.1-0.8-0.1-1.6-0.1-2.4
						c0-0.8,0-1.6,0.1-2.4l5.2-1.8c0.7-0.2,1.2-0.8,1.5-1.5c0.2-0.4,0.3-0.9,0.5-1.3c0.3-0.7,0.3-1.4,0-2.1l-2.4-4.9
						c1-1.3,2.2-2.4,3.4-3.4l5,2.4c0.7,0.3,1.4,0.3,2.1,0c0.4-0.2,0.9-0.4,1.3-0.5c0.7-0.3,1.2-0.8,1.5-1.5l1.8-5.2
						c1.6-0.2,3.2-0.2,4.8,0l1.8,5.2c0.2,0.7,0.8,1.2,1.5,1.5c0.4,0.2,0.9,0.3,1.3,0.5c0.7,0.3,1.4,0.3,2.1,0l4.9-2.4
						c1.3,1,2.4,2.2,3.4,3.4l-2.4,5c-0.3,0.7-0.3,1.4,0,2.1c0.2,0.4,0.4,0.9,0.6,1.3c0.2,0.7,0.8,1.2,1.5,1.5L86,81
						c0.1,0.8,0.1,1.6,0.1,2.4C86.1,84.2,86.1,85,86,85.8z"/>
					<rect x="62.3" y="63.7" class="st2" width="2.7" height="2.7"/>
					
						<rect x="49.4" y="69.2" transform="matrix(0.7071 -0.7071 0.7071 0.7071 -35.0203 56.5271)" class="st2" width="2.7" height="2.7"/>
					<rect x="44.1" y="82.2" class="st2" width="2.7" height="2.7"/>
					
						<rect x="49.6" y="95.2" transform="matrix(0.7071 -0.7071 0.7071 0.7071 -53.3594 64.2859)" class="st2" width="2.7" height="2.7"/>
					<rect x="62.6" y="100.5" class="st2" width="2.7" height="2.7"/>
					
						<rect x="75.6" y="95" transform="matrix(0.7071 -0.7071 0.7071 0.7071 -45.6006 82.6251)" class="st2" width="2.7" height="2.7"/>
					<rect x="80.9" y="81.9" class="st2" width="2.7" height="2.7"/>
					
						<rect x="75.4" y="69" transform="matrix(0.7071 -0.7071 0.7071 0.7071 -27.2614 74.8663)" class="st2" width="2.7" height="2.7"/>
				</g>
			</g>
			<g>
				<g>
					<path class="st3" d="M88.9,114.7l2.8-3.5l-2.3-3.1c-0.2-0.3-0.4-0.6-0.5-0.8s-0.2-0.4-0.2-0.6c0-0.2,0.1-0.4,0.3-0.6
						c0.2-0.2,0.5-0.2,0.8-0.2c0.3,0,0.6,0.1,0.8,0.3c0.2,0.2,0.5,0.5,0.8,1l1.8,2.6l2-2.6c0.2-0.2,0.3-0.4,0.4-0.6
						c0.1-0.2,0.2-0.3,0.3-0.4c0.1-0.1,0.2-0.2,0.4-0.2c0.1-0.1,0.3-0.1,0.5-0.1c0.3,0,0.6,0.1,0.8,0.2c0.2,0.2,0.3,0.4,0.3,0.6
						c0,0.3-0.2,0.8-0.6,1.3l-2.4,3.2l2.6,3.5c0.2,0.3,0.4,0.6,0.5,0.8c0.1,0.2,0.2,0.4,0.2,0.6c0,0.2,0,0.3-0.1,0.5
						c-0.1,0.1-0.2,0.3-0.4,0.3c-0.2,0.1-0.4,0.1-0.6,0.1c-0.2,0-0.4,0-0.6-0.1c-0.2-0.1-0.3-0.2-0.4-0.3c-0.1-0.1-0.3-0.4-0.6-0.7
						l-2.2-3l-2.3,3.1c-0.2,0.2-0.3,0.4-0.4,0.5c-0.1,0.1-0.2,0.2-0.3,0.3c-0.1,0.1-0.2,0.2-0.4,0.2c-0.1,0.1-0.3,0.1-0.5,0.1
						c-0.3,0-0.6-0.1-0.8-0.2c-0.2-0.2-0.3-0.4-0.3-0.7C88.2,115.7,88.4,115.3,88.9,114.7z"/>
				</g>
				<g>
					<path class="st3" d="M110.2,108.7c-0.1-0.6-0.5-1.1-1-1.2l-3.5-1.3l1.6-3.3c0.2-0.5,0.2-1.1-0.2-1.6c-1.1-1.5-2.4-2.8-3.8-3.8
						c-0.5-0.3-1.1-0.4-1.6-0.2l-3.4,1.6l-1.2-3.5c-0.2-0.5-0.7-0.9-1.2-1c-1.8-0.3-3.6-0.3-5.4,0c-0.6,0.1-1.1,0.5-1.3,1l-1.2,3.5
						l-2.1-1c0,0.5-0.2,0.9-0.5,1.3c-0.3,0.4-0.6,0.8-0.9,1.2l2.8,1.3c0.4,0.2,0.9,0.2,1.4,0c0.3-0.1,0.6-0.3,0.8-0.4
						c0.4-0.2,0.8-0.5,1-1l1.2-3.3c1-0.1,2.1-0.1,3.1,0l1.2,3.3c0.2,0.4,0.5,0.8,0.9,1c0.3,0.1,0.6,0.2,0.9,0.4
						c0.4,0.2,0.9,0.2,1.3,0l3.2-1.5c0.8,0.7,1.5,1.4,2.2,2.2l-1.5,3.2c-0.2,0.4-0.2,0.9,0,1.3c0.1,0.3,0.2,0.6,0.4,0.9
						c0.2,0.4,0.5,0.8,1,0.9l3.3,1.2c0.1,0.5,0.1,1,0.1,1.6c0,0.5,0,1-0.1,1.6l-3.3,1.2c-0.4,0.2-0.8,0.5-1,1
						c-0.1,0.3-0.2,0.6-0.4,0.8c-0.2,0.4-0.2,0.9,0,1.4l1.5,3.2c-0.7,0.8-1.4,1.5-2.2,2.2l-3.2-1.5c-0.4-0.2-0.9-0.2-1.3,0
						c-0.3,0.1-0.6,0.2-0.8,0.3c-0.5,0.2-0.8,0.5-1,1l-1.2,3.3c-1.1,0.1-2.1,0.1-3.1,0l-1.2-3.3c-0.2-0.4-0.5-0.8-1-1
						c-0.3-0.1-0.6-0.2-0.8-0.3c-0.4-0.2-0.9-0.2-1.4,0l-3.2,1.5c-0.8-0.7-1.5-1.4-2.2-2.2l1.5-3.2c0.2-0.4,0.2-0.9,0-1.4
						c-0.1-0.3-0.2-0.6-0.3-0.8c-0.2-0.4-0.5-0.8-1-1l-3.3-1.2c-0.1-0.5-0.1-1-0.1-1.6c0-0.5,0-1,0.1-1.6l3.3-1.2
						c0.4-0.2,0.8-0.5,1-1c0.1-0.3,0.2-0.6,0.3-0.8c0.2-0.4,0.2-0.9,0-1.4l-1.3-2.6c-0.7,0.7-1.4,1.3-2.2,1.9l0.7,1.4l-3.5,1.2
						c-0.6,0.2-1,0.7-1,1.3c-0.1,0.9-0.2,1.8-0.2,2.7c0,0.9,0.1,1.8,0.2,2.7c0.1,0.6,0.5,1.1,1,1.3l3.5,1.2L79,120
						c-0.3,0.5-0.2,1.1,0.1,1.6c1.1,1.5,2.4,2.8,3.8,3.8c0.5,0.3,1.1,0.4,1.6,0.2l3.3-1.6l1.2,3.5c0.2,0.5,0.7,0.9,1.3,1
						c0.9,0.1,1.8,0.2,2.7,0.2s1.8-0.1,2.7-0.2c0.6-0.1,1-0.5,1.2-1l1.2-3.5l3.4,1.6c0.5,0.2,1.1,0.2,1.6-0.2
						c1.5-1.1,2.8-2.4,3.8-3.8c0.3-0.5,0.4-1.1,0.2-1.6l-1.6-3.3l3.5-1.2c0.5-0.2,0.9-0.7,1-1.3c0.1-0.9,0.2-1.8,0.2-2.7
						C110.4,110.5,110.4,109.6,110.2,108.7z"/>
				</g>
			</g>
		</g>
	</g>
</g>
</svg>
